<svg xmlns="http://www.w3.org/2000/svg" viewBox="0 0 65.47 75.87"><defs><style>.cls-1{fill:#fff;}.cls-2{fill:#fff;}.cls-3{fill:#fff;}.cls-4{fill:#fff;}.cls-5{fill:#fff;}</style></defs><g id="Layer_2" data-name="Layer 2"><g id="Layer_1-2" data-name="Layer 1"><polygon class="cls-1" points="25.84 38.72 10.04 55.26 25.99 55.26 30.82 43.94 25.84 38.72"/><polygon class="cls-1" points="40.01 48.53 33.05 38.72 30.82 43.95 38.52 52.01 40.01 48.53"/><polygon class="cls-1" points="30.82 43.94 25.99 55.26 37.13 55.26 38.52 52.01 30.82 43.94"/><polygon class="cls-2" points="30.82 43.94 25.99 55.26 37.13 55.26 38.52 52.01 30.82 43.94"/><polygon class="cls-1" points="43.28 50.3 40.76 46.75 40.01 48.53 42.41 51.92 43.28 50.3"/><polygon class="cls-2" points="40.99 54.59 42.41 51.92 40.01 48.53 38.52 52.01 40.99 54.59"/><polygon class="cls-1" points="38.52 52.01 37.13 55.26 40.63 55.26 40.99 54.59 38.52 52.01"/><polygon class="cls-3" points="38.52 52.01 37.13 55.26 40.63 55.26 40.99 54.59 38.52 52.01"/><polygon class="cls-1" points="46.46 50.93 44.27 48.45 43.28 50.3 44.99 52.71 46.46 50.93"/><polygon class="cls-2" points="43.9 54.02 44.99 52.71 43.28 50.3 42.41 51.92 43.9 54.02"/><polygon class="cls-3" points="42.41 51.92 40.99 54.59 41.63 55.26 42.88 55.26 43.9 54.02 42.41 51.92"/><polygon class="cls-1" points="40.63 55.26 41.63 55.26 40.99 54.59 40.63 55.26"/><polygon class="cls-4" points="40.99 54.59 40.99 54.59 40.63 55.26 41.63 55.26 40.99 54.59"/><polygon class="cls-5" points="40.63 55.26 41.63 55.26 40.99 54.59 40.63 55.26"/><polygon class="cls-1" points="47.59 49.56 46.46 50.93 50.3 55.26 55.43 55.26 47.59 49.56"/><polygon class="cls-2" points="44.99 52.71 46.8 55.26 50.3 55.26 46.46 50.93 44.99 52.71"/><polygon class="cls-3" points="43.9 54.02 44.79 55.26 46.8 55.26 44.99 52.71 43.9 54.02"/><polygon class="cls-4" points="43.9 54.02 43.9 54.02 42.88 55.26 44.79 55.26 43.9 54.02"/><polygon class="cls-5" points="42.88 55.26 44.79 55.26 43.9 54.02 42.88 55.26"/><path class="cls-1" d="M7,58.49H58.49V7H7Zm58.49,7H0V0H65.47Z"/><path class="cls-1" d="M9.64,73.6l-.05.13h1l0-.1-.48-1.24ZM11.15,75H9l-.35.84H7.07L9.55,70.1h1.08l2.58,5.77H11.5Z"/><polygon class="cls-1" points="17.04 74.52 19.64 74.52 19.64 75.87 15.52 75.87 15.52 70.16 17.04 70.16 17.04 74.52"/><polygon class="cls-1" points="23.52 72.31 25.15 72.31 25.15 70.16 26.67 70.16 26.67 75.87 25.15 75.87 25.15 73.66 23.52 73.66 23.52 75.87 22.01 75.87 22.01 70.16 23.52 70.16 23.52 72.31"/><path class="cls-1" d="M31.49,73.6l0,.13h1l0-.1L32,72.39ZM33,75H30.89l-.34.84H28.93l2.48-5.77h1.08l2.57,5.77H33.35Z"/><polygon class="cls-1" points="38.9 75.87 37.38 75.87 37.38 70.16 38.59 70.16 40.22 72.37 41.85 70.16 43.03 70.16 43.03 75.87 41.53 75.87 41.53 73.05 40.63 74.26 39.79 74.26 38.9 73.03 38.9 75.87"/><path class="cls-1" d="M46.93,72.67h.87a.59.59,0,1,0,0-1.17h-.87Zm0,1.26v1.94H45.42V70.16h2.41a1.89,1.89,0,0,1,.92,3.64l1.33,1.81v.26H48.47l-1.29-1.94Z"/><path class="cls-1" d="M54.84,73.6l-.05.13h1l0-.1-.47-1.24ZM56.36,75H54.24l-.34.84H52.28l2.48-5.77h1.08l2.57,5.77H56.7Z"/></g></g></svg>